<?xml version="1.0" encoding="iso-8859-1"?>
<!-- Generator: Adobe Illustrator 16.0.0, SVG Export Plug-In . SVG Version: 6.00 Build 0)  -->
<!DOCTYPE svg PUBLIC "-//W3C//DTD SVG 1.1//EN" "http://www.w3.org/Graphics/SVG/1.1/DTD/svg11.dtd">
<svg version="1.1" id="Capa_1" xmlns="http://www.w3.org/2000/svg" xmlns:xlink="http://www.w3.org/1999/xlink" x="0px" y="0px"
	 width="612px" height="612px" viewBox="0 0 612 612" style="enable-background:new 0 0 612 612;" xml:space="preserve">
<g>
	<path d="M442.445,183.241c35.251-35.08,57.114-83.589,57.114-137.117C499.56,20.651,478.908,0,453.435,0H158.592
		c-25.474,0-46.125,20.651-46.125,46.123c0,53.529,21.863,102.051,57.1,137.116C87.889,230.561,32.675,318.722,32.675,419.732
		C32.675,612,231.242,612,306,612s273.325,0,273.325-192.268C579.338,318.724,524.135,230.548,442.445,183.241z M403.227,446.062
		c0,43.672-29.651,70.239-73.638,75.694v17.552c0,13.02-10.556,23.576-23.577,23.576c-13.046,0-23.603-10.555-23.603-23.576v-19.504
		c-22.363-4.217-44.146-12.889-63.346-26.659c-6.022-4.231-10.266-12.032-10.266-20.53c0-14.181,11.32-25.144,25.513-25.144
		c7.05,0,12.018,2.477,15.551,4.955c18.792,13.823,39.323,22.31,63.399,22.31c22.31,0,35.804-8.855,35.804-23.364v-0.712
		c0-13.796-8.513-20.887-49.958-31.508c-49.905-12.743-82.151-26.566-82.151-75.8v-0.698c0-38.335,26.383-65.414,65.482-72.636
		v-18.477c0-13.019,10.555-23.588,23.603-23.588c13.02,0,23.576,10.555,23.576,23.588v18.66c19.464,3.176,37.109,9.766,52.712,19.7
		c6.048,3.519,12.07,10.965,12.07,21.6c0,14.153-11.32,25.143-25.485,25.143c-5.352,0-9.58-1.409-13.823-3.888
		c-18.066-10.622-35.08-16.657-52.094-16.657c-20.873,0-31.865,9.554-31.865,21.6v0.725c0,16.275,10.635,21.6,53.489,32.562
		c50.262,13.113,78.634,31.165,78.634,74.364v0.712H403.227L403.227,446.062z"/>
</g>
<g>
</g>
<g>
</g>
<g>
</g>
<g>
</g>
<g>
</g>
<g>
</g>
<g>
</g>
<g>
</g>
<g>
</g>
<g>
</g>
<g>
</g>
<g>
</g>
<g>
</g>
<g>
</g>
<g>
</g>
</svg>
