<svg id="Capa_1" enable-background="new 0 0 512 512" height="512" viewBox="0 0 512 512" width="512" xmlns="http://www.w3.org/2000/svg"><g><g><path d="m451.972 90.333h-379.822c-35.705 0-64.65 28.945-64.65 64.65v98.996h464.675v-143.442c0-11.158-9.046-20.204-20.203-20.204z" fill="#2b4d66"/></g><g><path d="m472.175 235.797v-28.285c0-11.158-9.045-20.203-20.203-20.203h-379.822c-17.853 0-32.325-14.472-32.325-32.325v-55.98c-19.318 11.18-32.325 32.054-32.325 55.98v80.813z" fill="#81a7c6"/></g><g><path d="m39.825 39.825v115.159c0 17.853 14.473 32.325 32.325 32.325h367.7v-115.159h-367.7c-17.852 0-32.325-14.472-32.325-32.325z" fill="#b3e59f"/></g><g><path d="m413.585 72.15h26.264v115.159h-26.264z" fill="#95d6a4"/></g><g><path d="m7.5 154.984c0 35.709 28.941 64.65 64.65 64.65h379.821c11.158 0 20.203 9.045 20.203 20.203v244.459c0 11.158-9.045 20.203-20.203 20.203h-379.821c-35.705 0-64.65-28.945-64.65-64.65z" fill="#407093"/></g><g><path d="m451.972 219.634h-30.305c11.158 0 20.203 9.045 20.203 20.203v36.366c0 5.579-4.523 10.102-10.102 10.102h-7.128c-41.154 0-75.303 32.862-75.702 74.014-.403 41.555 33.284 75.49 74.748 75.49h8.081c5.579 0 10.102 4.523 10.102 10.102v38.386c0 11.158-9.045 20.203-20.203 20.203h30.305c11.158 0 20.203-9.045 20.203-20.203v-244.46c.001-11.158-9.045-20.203-20.202-20.203z" fill="#365e7d"/></g><g><path d="m484.297 409.545h-60.61c-26.779 0-48.488-21.709-48.488-48.488 0-26.779 21.709-48.488 48.488-48.488h60.61c11.158 0 20.203 9.045 20.203 20.203v56.569c0 11.158-9.045 20.204-20.203 20.204z" fill="#2b4d66"/></g><g><circle cx="423.687" cy="361.057" fill="#ffe07d" r="16.163"/></g><g><path d="m72.15 7.5c-17.853 0-32.325 14.472-32.325 32.325s14.473 32.325 32.325 32.325h367.7v-64.65z" fill="#d8f1a0"/></g><g><path d="m484.297 305.069h-4.627v-194.529c0-15.279-12.426-27.71-27.7-27.71h-4.62v-75.33c0-4.142-3.358-7.5-7.5-7.5h-367.7c-21.957 0-39.82 17.868-39.82 39.83v54.987c-20.045 13.301-32.33 35.961-32.33 60.163v99 185.87c0 39.784 32.366 72.15 72.15 72.15h303.4c4.142 0 7.5-3.358 7.5-7.5s-3.358-7.5-7.5-7.5h-303.4c-31.513 0-57.15-25.637-57.15-57.15v-185.87-55.007c13.205 17.114 33.912 28.157 57.15 28.157h379.82c7.002 0 12.7 5.702 12.7 12.71v65.229h-40.983c-30.872 0-55.988 25.116-55.988 55.988s25.116 55.988 55.988 55.988h40.983v67.255c0 7.003-5.697 12.7-12.7 12.7h-41.42c-4.142 0-7.5 3.358-7.5 7.5s3.358 7.5 7.5 7.5h41.42c15.273 0 27.7-12.426 27.7-27.7v-67.255h4.627c15.275 0 27.703-12.428 27.703-27.704v-56.569c0-15.275-12.428-27.703-27.703-27.703zm-32.327-207.239c7.002 0 12.7 5.702 12.7 12.71v72.363c-3.807-1.972-8.123-3.094-12.698-3.094h-4.622v-81.979zm0 114.3h-379.82c-31.513 0-57.15-25.637-57.15-57.15 0-15.563 6.419-30.32 17.33-40.963v40.963c0 21.962 17.863 39.83 39.82 39.83h46.78c4.142 0 7.5-3.358 7.5-7.5s-3.358-7.5-7.5-7.5h-46.78c-13.686 0-24.82-11.139-24.82-24.83v-84.046c6.812 5.447 15.439 8.715 24.82 8.715h275.35c4.142 0 7.5-3.358 7.5-7.5s-3.358-7.5-7.5-7.5h-275.35c-13.686 0-24.82-11.134-24.82-24.82 0-13.69 11.134-24.829 24.82-24.829h360.2v17.325h-360.2c-4.142 0-7.5 3.358-7.5 7.5s3.358 7.5 7.5 7.5h360.2v17.325h-49.85c-4.142 0-7.5 3.358-7.5 7.5s3.358 7.5 7.5 7.5h49.85v100.16h-17.326v-24.826c0-4.142-3.358-7.5-7.5-7.5-23.715 0-43.008-19.293-43.008-43.008 0-4.142-3.358-7.5-7.5-7.5h-258.601c-4.142 0-7.5 3.358-7.5 7.5s3.358 7.5 7.5 7.5h251.584c3.372 25.999 24.027 46.654 50.026 50.026v17.809h-246.095c-4.142 0-7.5 3.358-7.5 7.5s3.358 7.5 7.5 7.5l298.042-.001c6.972 0 12.646 5.647 12.698 12.607v7.811c-3.807-1.975-8.124-3.098-12.7-3.098zm45.03 177.211c0 7.005-5.699 12.704-12.703 12.704h-12.03c-.033 0-.064-.005-.097-.005s-.064.004-.097.005h-48.386c-22.601 0-40.988-18.387-40.988-40.988s18.387-40.987 40.988-40.987h48.473.01s.006 0 .01 0h12.117c7.004 0 12.703 5.699 12.703 12.703z"/><path d="m423.687 337.395c-13.047 0-23.663 10.615-23.663 23.663s10.615 23.663 23.663 23.663 23.663-10.615 23.663-23.663-10.616-23.663-23.663-23.663zm0 32.325c-4.776 0-8.663-3.886-8.663-8.663s3.886-8.663 8.663-8.663 8.663 3.886 8.663 8.663-3.887 8.663-8.663 8.663z"/></g></g></svg>